<svg xmlns="http://www.w3.org/2000/svg" viewBox="0 0 481.33 76.13"><rect x="318.37" y="61.83" width="98.33" height="6.77" style="fill:#1d1d1b"></rect><polygon points="476.4 13.56 31.52 13.56 30.69 6.95 476.4 7.15 476.4 13.56" style="fill:#1d1d1b"></polygon><polygon points="70.91 41.09 59.59 29.26 48.3 29.26 66.17 47.28 66.17 61.83 74.5 61.83 74.5 47.38 92.65 29.22 82.38 29.26 70.91 41.09" style="fill:#1d1d1b"></polygon><polygon points="187.86 61.77 195.62 61.77 195.62 48.19 208.6 48.19 208.6 42.21 195.62 42.21 195.62 34.97 219.74 34.97 219.74 29.19 187.86 29.19 187.86 61.77" style="fill:#1d1d1b"></polygon><rect x="228.09" y="29.22" width="7.93" height="32.42" style="fill:#1d1d1b"></rect><path d="M353.71,29.21h-7.42l-18.1,32.55h8L340,55.08h19.85l3.83,6.68h8.92L353.78,29.33Zm2.59,18H343.19l6.44-11.92Z" style="fill:#1d1d1b"></path><path d="M449.05,29.27V69.65h-20.7V29.27h-7.88V68.39c0,2.85.58,4.82,1.71,5.88s3.26,1.57,6.45,1.57h20.14c3.22,0,5.35-.52,6.52-1.59s1.75-3,1.75-5.86V29.27Z" style="fill:#1d1d1b"></path><polygon points="115.7 20.07 111.1 20.07 106.87 26.8 109.59 26.8 115.7 20.07" style="fill:#1d1d1b"></polygon><polygon points="115.78 26.8 118.49 26.8 124.6 20.07 120 20.07 115.78 26.8" style="fill:#1d1d1b"></polygon><path d="M35.65,13.31"></path><path d="M35.65,13.31"></path><path d="M35.65,13.31"></path><path d="M279.9,66.23" style="fill:none;stroke:#1d1d1b;stroke-miterlimit:10;stroke-width:6.7px"></path><path d="M133.89,66.23" style="fill:none;stroke:#1d1d1b;stroke-miterlimit:10;stroke-width:6.7px"></path><path d="M410.85,46.47a7.11,7.11,0,0,0-2.77-1.35A6.75,6.75,0,0,0,411,43.5a4.9,4.9,0,0,0,1.41-3.61V35.46c0-2.17-.6-3.76-1.79-4.74s-3.09-1.45-5.7-1.45H377.2l-.09,32.53H385L385,48H401.5a4.77,4.77,0,0,1,2.72.42c.44.36.56,10.48.56,11.41v2h7.75V60.41C412.53,58.8,413.5,48.49,410.85,46.47Zm-6.24-6.15a1.7,1.7,0,0,1-.6,1.49,4.73,4.73,0,0,1-2.51.48l-16.46,0V34.75h16.46a4.94,4.94,0,0,1,2.53.44,1.65,1.65,0,0,1,.58,1.47Z" style="fill:#1d1d1b"></path><path d="M174.52,46.88a6.59,6.59,0,0,0-3.06-1.8,6.59,6.59,0,0,0,2.93-1.62,4.91,4.91,0,0,0,1.42-3.61V35.41c0-2.16-.61-3.76-1.79-4.73s-3.1-1.46-5.71-1.46H140.56l-.1,32.56h7.86l.08-13.86h16.48a3.89,3.89,0,0,1,2.72.42c.44.36.56,10.48.56,11.41v2h7.75V60.39C175.91,58.77,175.51,48,174.52,46.88ZM168,40.28a1.66,1.66,0,0,1-.6,1.49,4.67,4.67,0,0,1-2.5.48l-16.48,0V34.71h16.48a5,5,0,0,1,2.52.43,1.67,1.67,0,0,1,.58,1.48Z" style="fill:#1d1d1b"></path><path d="M465.58,38.24c1,7.79,1.69,14.51,5.4,18.43.36,2.07-.1,3.37.68,4,1.25,1,3.78,3.17,2,4.72-3,1.49-2.67-4.46-4.72-2,.86,1.93,2.64,5.29,5.62,3.59,3.64-2.56-1.81-6.28.45-9.65,2.85-2.31,5.77-5.68,5.8-9.3l-.13-10a96.67,96.67,0,0,1-3.18-17.13c-.64-.78-.82-1.1-.64-1.19h0c-.19,0,.35.69.17.66l2.78,14.66c-5.32-4.44-9.38-3.38-11.88-1.23.09-3.61.08-8.8.46-13.44l2.78-.09a27.77,27.77,0,0,1-2.86-.23c0,.08,0,.15,0,.23h0L467.7,34c-1.44,1.68-2.12,2-2.06,4.66" style="fill:#fff;stroke:#1d1d1b;stroke-miterlimit:10;fill-rule:evenodd"></path><path d="M468.92,50c2.52-1.37,4.35,3.72,7.42,4C473,56.31,469.89,52.46,468.92,50Z" style="fill:#1d1d1b;stroke:#1d1d1b;stroke-miterlimit:10"></path><path d="M467.3,41.38c3.27,3.7,9,4.89,10.78,10.11C473.59,49,468.48,47.17,467.3,41.38Z" style="fill:#1d1d1b;stroke:#1d1d1b;stroke-miterlimit:10"></path><path d="M479.57,46.85c-2.17-.93-4-3.24-6.74-5.39-2-1.53-6.14-2.84-5.39-5.39,2.23-.57,4.68,2.37,6.74,4S480.07,43.39,479.57,46.85Z" style="fill:#1d1d1b;stroke:#1d1d1b;stroke-miterlimit:10"></path><path d="M470.83,34.15c3.23-1.42,8.16,1.25,8.09,5.39C475.42,38.54,474.1,35.37,470.83,34.15Z" style="fill:#1d1d1b;stroke:#1d1d1b;stroke-miterlimit:10"></path><path d="M477.82,21.35c0,1.86-2.15,3.37-4.8,3.37h0c-2.65,0-4.8-1.51-4.8-3.37v-18c0-1.86,2.15-3.37,4.8-3.37h0c2.65,0,4.8,1.51,4.8,3.37Z" style="fill:#1d1d1b;fill-rule:evenodd"></path>

<path d="M474.89,4.35a2,2,0,0,1-4,0,2,2,0,0,1,4,0Z" style="fill:#fff;stroke:#1d1d1b;stroke-miterlimit:10;"></path><path d="M475.07,19.35a2,2,0,1,1-2-1.89A2,2,0,0,1,475.07,19.35Z" style="fill:#fff;stroke:#1d1d1b;stroke-miterlimit:10;"></path><path d="M321.71,17.56c0,1.5-1.74,2.72-3.88,2.72h0c-2.15,0-3.88-1.22-3.88-2.72V3c0-1.51,1.73-2.73,3.88-2.73h0c2.14,0,3.88,1.22,3.88,2.73Z" style="fill:#1d1d1b;fill-rule:evenodd"></path>

<path d="M319.22,3.87a1.58,1.58,0,0,1-3.15,0,1.58,1.58,0,0,1,3.15,0Z" style="fill:#fff;stroke:#1d1d1b;stroke-miterlimit:10"></path><path d="M319.39,15.84a1.58,1.58,0,1,1-1.57-1.48A1.52,1.52,0,0,1,319.39,15.84Z" style="fill:#fff;stroke:#1d1d1b;stroke-miterlimit:10;stroke-width:0.9626659999999999px"></path><path d="M184.94,17.33c0,1.5-1.74,2.72-3.88,2.72h0c-2.14,0-3.88-1.22-3.88-2.72V2.8c0-1.5,1.74-2.72,3.88-2.72h0c2.14,0,3.88,1.22,3.88,2.72Z" style="fill:#1d1d1b;fill-rule:evenodd"></path>
<path d="M182.45,3.64a1.58,1.58,0,0,1-3.15,0,1.58,1.58,0,0,1,3.15,0Z" style="fill:#fff;stroke:#1d1d1b;stroke-miterlimit:10;stroke-width:0.9626659999999999px"></path><path d="M182.62,15.6a1.57,1.57,0,1,1-1.57-1.47A1.52,1.52,0,0,1,182.62,15.6Z" style="fill:#fff;stroke:#1d1d1b;stroke-miterlimit:10;stroke-width:0.9626659999999999px;/*! display: none; */"></path><path d="M36,7H9.21Q3.79,7,1.9,8.81T0,15.74l.19,51.6q0,5.1,1.9,6.94c1.27,1.23,3.7,1.85,7.31,1.85H35q5.41,0,7.31-1.85t1.9-6.94l.15-38.12H21.86v6.11H36l-.15,33.8h-27l-.3-55.54,27.66,0" style="fill:#1d1d1b"></path><rect x="133.19" y="61.83" width="150.41" height="6.77" style="fill:#1d1d1b"></rect><path d="M319.5,32.55c-2.38-3.25-8.88-3.34-15.7-3.34H279.9V75.59h20a85.93,85.93,0,0,0,10.93-.68c3.3-.55,8.29-1.27,9.05-4.3.13-.48.25-.7.41-1.15,2-5.6,2-29.58,1.47-32.1C321.12,34.46,321,34.58,319.5,32.55Zm-8.13,33.88C308,68.6,304.63,68.6,298,68.6h-9.48V35.5h15.32c4,0,8.09.14,9.38,2.68,1.87,3.68,1.39,14.68,1.16,18.47C314,63.22,314.5,64.42,311.37,66.43Z" style="fill:#1d1d1b"></path><rect x="47.36" y="61.64" width="49.12" height="7.87" style="fill:#1d1d1b;stroke:#fff;stroke-miterlimit:10;stroke-width:1.0125300000000002px"></rect><path d="M125.73,29.27H102.18c-3.21,0-5.33.52-6.46,1.59s-1.7,3-1.7,5.88V68c0,2.87.57,4.86,1.7,5.92s3.25,1.59,6.46,1.59h23.55c3.19,0,5.3-.52,6.45-1.59s1.71-3,1.71-5.92V36.74c0-2.84-.56-4.82-1.67-5.88S129,29.27,125.73,29.27ZM126,35.4V69.13h-24V35.4Z" style="fill:#1d1d1b"></path></svg>